<?xml version="1.0" encoding="utf-8"?><svg xmlns="http://www.w3.org/2000/svg" xmlns:xlink="http://www.w3.org/1999/xlink" width="1280" height="689" preserveAspectRatio="xMidYMid" viewBox="0 0 1280 689" style="z-index:1;margin-right:-2px;display:block;background-repeat-y:initial;background-repeat-x:initial;background-color:rgb(7, 6, 22);animation-play-state:paused" ><g transform="" style="animation-play-state:paused" ><defs style="animation-play-state:paused" ><path id="path-um8hdayd2c-1" d="M-35 -35L35 -35L35 35L-35 35Z" fill="none" stroke="inherit" stroke-width="4.333333333333334" transform="scale(0.3)" style="transform:matrix(0.3, 0, 0, 0.3, 0, 0);animation-play-state:paused" ></path>

  
<path id="path-um8hdayd2c-2" d="M0 -37A37 37 0 0 1 0 37A37 37 0 0 1 0 -37" fill="none" stroke="inherit" stroke-width="4.333333333333334" transform="scale(0.3)" style="transform:matrix(0.3, 0, 0, 0.3, 0, 0);animation-play-state:paused" ></path>

  
<path id="path-um8hdayd2c-3" d="M0 -34.641L40 34.641L-40 34.641Z" fill="none" stroke="inherit" stroke-width="4.333333333333334" transform="scale(0.3)" style="transform:matrix(0.3, 0, 0, 0.3, 0, 0);animation-play-state:paused" ></path></defs>
<path id="path0" d="M 88.10724492758789 491.7171381672094
c 0 45.765396568828045 -11.19791618173452 13.145379865514439 -24.34329604724896 13.145379865514439
S 39.420652833089974 537.4825347360375 39.420652833089974 491.7171381672094
s 11.19791618173452 -13.145379865514439 24.34329604724896 -13.145379865514439
S 88.10724492758789 445.9517415983813 88.10724492758789 491.7171381672094
z" fill="none" stroke="none" style="animation-play-state:paused" ></path>


<use xlink:href="#path-um8hdayd2c-3" x="0" y="0" stroke="#aabbcc" transform="translate(67.24476623535156 505.5687561035156)" style="animation-play-state:paused" ></use>
<path id="path1" d="M 164.97482434235272 100.40524290378002
c 0 35.27874765577521 -8.632034000881168 10.133257305382243 -18.76529130626341 10.133257305382243
S 127.4442417298259 135.68399055955524 127.4442417298259 100.40524290378002
s 8.632034000881168 -10.133257305382243 18.76529130626341 -10.133257305382243
S 164.97482434235272 65.1264952480048 164.97482434235272 100.40524290378002
z" fill="none" stroke="none" style="animation-play-state:paused" ></path>


<use xlink:href="#path-um8hdayd2c-3" x="0" y="0" stroke="#bbddff" transform="translate(163.42640686035156 116.9807357788086)" style="animation-play-state:paused" ></use>
<path id="path2" d="M 211.89595483354736 95.68982040628659
c 0 20.80012801519888 -5.08939302499547 5.9745048554294655 -11.063897880424935 5.9745048554294655
S 189.76815907269747 116.48994842148547 189.76815907269747 95.68982040628659
s 5.08939302499547 -5.9745048554294655 11.063897880424935 -5.9745048554294655
S 211.89595483354736 74.8896923910877 211.89595483354736 95.68982040628659
z" fill="none" stroke="none" style="animation-play-state:paused" ></path>


<use xlink:href="#path-um8hdayd2c-1" x="0" y="0" stroke="#aabbcc" transform="translate(200.53958129882812 101.67604064941406)" style="animation-play-state:paused" ></use>
<path id="path3" d="M 250.15935736279957 73.66010473634401
c 0 33.88113723471312 -8.290065493600018 9.73181601422611 -18.021881507826127 9.73181601422611
S 214.11559434714732 107.54124197105713 214.11559434714732 73.66010473634401
s 8.290065493600018 -9.73181601422611 18.021881507826127 -9.73181601422611
S 250.15935736279957 39.77896750163089 250.15935736279957 73.66010473634401
z" fill="none" stroke="none" style="animation-play-state:paused" ></path>


<use xlink:href="#path-um8hdayd2c-1" x="0" y="0" stroke="#bbddff" transform="translate(218.49111938476562 91.64476013183594)" style="animation-play-state:paused" ></use>
<path id="path4" d="M 346.62249610928865 450.5337252832078
c 0 56.67552215951436 -13.867414996476915 16.279139343690296 -30.14655434016721 16.279139343690296
S 286.32938742895425 507.20924744272213 286.32938742895425 450.5337252832078
s 13.867414996476915 -16.279139343690296 30.14655434016721 -16.279139343690296
S 346.62249610928865 393.85820312369344 346.62249610928865 450.5337252832078
z" fill="none" stroke="none" style="animation-play-state:paused" ></path>


<use xlink:href="#path-um8hdayd2c-1" x="0" y="0" stroke="#bbddff" transform="translate(337.8764953613281 480.0450134277344)" style="animation-play-state:paused" ></use>
<path id="path5" d="M 432.1463007235099 459.7323991717701
c 0 34.23994499342641 -8.37785888137029 9.834877817260779 -18.21273669863107 9.834877817260779
S 395.72082732624773 493.97234416519655 395.72082732624773 459.7323991717701
s 8.37785888137029 -9.834877817260779 18.21273669863107 -9.834877817260779
S 432.1463007235099 425.4924541783437 432.1463007235099 459.7323991717701
z" fill="none" stroke="none" style="animation-play-state:paused" ></path>


<use xlink:href="#path-um8hdayd2c-3" x="0" y="0" stroke="#ddeeff" transform="translate(429.62298583984375 477.48797607421875)" style="animation-play-state:paused" ></use>
<path id="path6" d="M 532.8944326130301 642.4569931672501
c 0 61.55672938778633 -15.061752935309421 17.681188228406715 -32.74294116371613 17.681188228406715
S 467.4085502855978 704.0137225550363 467.4085502855978 642.4569931672501
s 15.061752935309421 -17.681188228406715 32.74294116371613 -17.681188228406715
S 532.8944326130301 580.9002637794638 532.8944326130301 642.4569931672501
z" fill="none" stroke="none" style="animation-play-state:paused" ></path>


<use xlink:href="#path-um8hdayd2c-2" x="0" y="0" stroke="#bbddff" transform="translate(502.5422058105469 660.3955688476562)" style="animation-play-state:paused" ></use>
<path id="path7" d="M 544.9610602581618 332.12427352997753
c 0 60.66402860078273 -14.843326147000028 17.424774172565254 -32.26810031956528 17.424774172565254
S 480.42485961903117 392.78830213076026 480.42485961903117 332.12427352997753
s 14.843326147000028 -17.424774172565254 32.26810031956528 -17.424774172565254
S 544.9610602581618 271.4602449291948 544.9610602581618 332.12427352997753
z" fill="none" stroke="none" style="animation-play-state:paused" ></path>


<use xlink:href="#path-um8hdayd2c-1" x="0" y="0" stroke="#bbddff" transform="translate(544.7996826171875 342.0404968261719)" style="animation-play-state:paused" ></use>
<path id="path8" d="M 622.2963092786348 98.4948714419807
c 0 55.54544865401512 -13.590907649386676 15.95454376232349 -29.545451411710168 15.95454376232349
S 563.2054064552145 154.0403200959958 563.2054064552145 98.4948714419807
s 13.590907649386676 -15.95454376232349 29.545451411710168 -15.95454376232349
S 622.2963092786348 42.94942278796559 622.2963092786348 98.4948714419807
z" fill="none" stroke="none" style="animation-play-state:paused" ></path>


<use xlink:href="#path-um8hdayd2c-1" x="0" y="0" stroke="#aabbcc" transform="translate(622.2615966796875 103.10139465332031)" style="animation-play-state:paused" ></use>
<path id="path9" d="M 707.7444184102172 593.5999422639865
c 0 59.32083309940797 -14.514671928578544 17.03896269876612 -31.553634627344664 17.03896269876612
S 644.6371491555279 652.9207753633945 644.6371491555279 593.5999422639865
s 14.514671928578544 -17.03896269876612 31.553634627344664 -17.03896269876612
S 707.7444184102172 534.2791091645785 707.7444184102172 593.5999422639865
z" fill="none" stroke="none" style="animation-play-state:paused" ></path>


<use xlink:href="#path-um8hdayd2c-3" x="0" y="0" stroke="#bbddff" transform="translate(707.728271484375 596.8565063476562)" style="animation-play-state:paused" ></use>
<path id="path10" d="M 745.8837728065828 470.80444983816625
c 0 37.84369209492168 -9.259626789182963 10.86999666556261 -20.129623454745573 10.86999666556261
S 705.6245258970916 508.6481419330879 705.6245258970916 470.80444983816625
s 9.259626789182963 -10.86999666556261 20.129623454745573 -10.86999666556261
S 745.8837728065828 432.9607577432446 745.8837728065828 470.80444983816625
z" fill="none" stroke="none" style="animation-play-state:paused" ></path>


<use xlink:href="#path-um8hdayd2c-1" x="0" y="0" stroke="#ddeeff" transform="translate(709.9713134765625 490.98583984375)" style="animation-play-state:paused" ></use>
<path id="path11" d="M 832.824982472513 93.55864662475673
c 0 26.550422029300258 -6.496379858233041 7.626185050969223 -14.122564909202264 7.626185050969223
S 804.5798526541084 120.10906865405698 804.5798526541084 93.55864662475673
s 6.496379858233041 -7.626185050969223 14.122564909202264 -7.626185050969223
S 832.824982472513 67.00822459545648 832.824982472513 93.55864662475673
z" fill="none" stroke="none" style="animation-play-state:paused" ></path>


<use xlink:href="#path-um8hdayd2c-1" x="0" y="0" stroke="#ddeeff" transform="translate(832.7468872070312 98.10356140136719)" style="animation-play-state:paused" ></use>
<path id="path12" d="M 905.5022276299453 188.3578680339524
c 0 32.322723808321086 -7.908751570121116 9.284186625794355 -17.19293819591547 9.284186625794355
S 871.1163512381145 220.6805918422735 871.1163512381145 188.3578680339524
s 7.908751570121116 -9.284186625794355 17.19293819591547 -9.284186625794355
S 905.5022276299453 156.0351442256313 905.5022276299453 188.3578680339524
z" fill="none" stroke="none" style="animation-play-state:paused" ></path>


<use xlink:href="#path-um8hdayd2c-1" x="0" y="0" stroke="#ddeeff" transform="translate(882.1948852539062 200.3494415283203)" style="animation-play-state:paused" ></use>
<path id="path13" d="M 995.4292757407187 416.4141661994375
c 0 51.04175173318449 -12.488939253864288 14.660928689318949 -27.14986794318324 14.660928689318949
S 941.1295398543522 467.45591793262196 941.1295398543522 416.4141661994375
s 12.488939253864288 -14.660928689318949 27.14986794318324 -14.660928689318949
S 995.4292757407187 365.372414466253 995.4292757407187 416.4141661994375
z" fill="none" stroke="none" style="animation-play-state:paused" ></path>


<use xlink:href="#path-um8hdayd2c-2" x="0" y="0" stroke="#ddeeff" transform="translate(993.8736572265625 438.1452941894531)" style="animation-play-state:paused" ></use>
<path id="path14" d="M 1052.9111593653447 30.41275280391681
c 0 53.38955738048109 -13.063402337777285 15.335298396521162 -28.398700734298448 15.335298396521162
S 996.1137578967478 83.8023101843979 996.1137578967478 30.41275280391681
s 13.063402337777285 -15.335298396521162 28.398700734298448 -15.335298396521162
S 1052.9111593653447 -22.976804576564277 1052.9111593653447 30.41275280391681
z" fill="none" stroke="none" style="animation-play-state:paused" ></path>


<use xlink:href="#path-um8hdayd2c-1" x="0" y="0" stroke="#aabbcc" transform="translate(997.7799682617188 53.302650451660156)" style="animation-play-state:paused" ></use>
<path id="path15" d="M 1104.6841268291287 558.966808998994
c 0 62.12744006441478 -15.201394909378081 17.845115763182967 -33.04651067256105 17.845115763182967
S 1038.5911054840067 621.0942490634088 1038.5911054840067 558.966808998994
s 15.201394909378081 -17.845115763182967 33.04651067256105 -17.845115763182967
S 1104.6841268291287 496.8393689345792 1104.6841268291287 558.966808998994
z" fill="none" stroke="none" style="animation-play-state:paused" ></path>


<use xlink:href="#path-um8hdayd2c-1" x="0" y="0" stroke="#aabbcc" transform="translate(1065.45703125 578.4114990234375)" style="animation-play-state:paused" ></use>
<path id="path16" d="M 1143.3651045014599 270.4092175683938
c 0 34.00486608198438 -8.320339573251497 9.76735515120828 -18.087694724459777 9.76735515120828
S 1107.1897150525401 304.4140836503782 1107.1897150525401 270.4092175683938
s 8.320339573251497 -9.76735515120828 18.087694724459777 -9.76735515120828
S 1143.3651045014599 236.4043514864094 1143.3651045014599 270.4092175683938
z" fill="none" stroke="none" style="animation-play-state:paused" ></path>


<use xlink:href="#path-um8hdayd2c-2" x="0" y="0" stroke="#ddeeff" transform="translate(1137.162353515625 287.5295104980469)" style="animation-play-state:paused" ></use>
<path id="path17" d="M 1247.2645744862393 414.81108541086076
c 0 34.191962692573476 -8.366118531161593 9.821095667015786 -18.18721419817738 9.821095667015786
S 1210.8901460898846 449.00304810343425 1210.8901460898846 414.81108541086076
s 8.366118531161593 -9.821095667015786 18.18721419817738 -9.821095667015786
S 1247.2645744862393 380.61912271828726 1247.2645744862393 414.81108541086076
z" fill="none" stroke="none" style="animation-play-state:paused" ></path>


<use xlink:href="#path-um8hdayd2c-2" x="0" y="0" stroke="#ddeeff" transform="translate(1246.8314208984375 425.5910949707031)" style="animation-play-state:paused" ></use></g></svg>